<svg width="400" height="400" viewBox="0 0 400 400" fill="none" xmlns="http://www.w3.org/2000/svg">
    <circle cx="200" cy="200" r="200" fill="url(#paint0_linear)"/>
    <g clip-path="url(#clip0)">
        <path d="M98.8553 320.869H91.008L81.9749 299.854V320.869H74.8574V273.752H81.9749V293.683L89.8829 273.752H97.6695V274.083L87.9976 296.452L98.8553 320.869Z" fill="#1B3E39"/>
        <path d="M126.077 320.869H118.656L110.809 298.982V294.737H117.804V279.803H108.832V320.869H101.714V273.752H120.602C123.462 273.752 124.891 275.197 124.891 278.088V295.218C124.891 297.206 124.212 298.491 122.853 299.072C122.124 299.373 120.582 299.523 118.231 299.523L126.077 320.869Z" fill="#1B3E39"/>
        <path d="M154.242 316.564C154.242 319.435 152.783 320.869 149.862 320.869H134.746C131.866 320.869 130.426 319.435 130.426 316.564V273.752H137.544V314.818H147.125V273.752H154.242V316.564Z" fill="#1B3E39"/>
        <path d="M175.776 297.747V279.803H167.077V297.747H175.776ZM182.954 299.403C182.954 302.333 181.505 303.799 178.606 303.799H167.077V320.869H159.96V273.752H178.606C181.505 273.752 182.954 275.197 182.954 278.088V299.403Z" fill="#1B3E39"/>
        <path d="M202.633 305.876L199.167 284.621L195.669 305.876H202.633ZM212.123 320.869H205.067L203.638 311.928H194.725L193.296 320.869H186.27V320.75L195.486 273.692H202.968L212.123 320.869Z" fill="#1B3E39"/>
        <path d="M238.92 316.564C238.92 319.435 237.48 320.869 234.601 320.869H220.275C217.416 320.869 215.986 319.435 215.986 316.564V305.334H223.104V314.939H231.803V305.695L217.538 292.328C216.503 291.345 215.986 290.091 215.986 288.566V278.088C215.986 275.197 217.416 273.752 220.275 273.752H234.601C237.48 273.752 238.92 275.178 238.92 278.027V288.566H231.803V279.683H223.104V288.204L237.368 301.511C238.403 302.474 238.92 303.75 238.92 305.334V316.564Z" fill="#1B3E39"/>
        <path d="M268.697 320.869H262.461L251.055 291.215C251.36 292.659 251.512 293.794 251.512 294.617V320.869H244.577V273.752H250.813L262.218 302.805C261.914 301.361 261.761 300.226 261.761 299.403V273.752H268.697V320.869Z" fill="#1B3E39"/>
        <path d="M289.045 305.876L285.577 284.621L282.08 305.876H289.045ZM298.534 320.869H291.478L290.048 311.928H281.137L279.708 320.869H272.681V320.75L281.896 273.692H289.379L298.534 320.869Z" fill="#1B3E39"/>
        <path d="M318.731 314.939V301.511L315.232 299.223H309.636V314.939H318.731ZM318.548 291.093V279.683H309.636V293.501H315.111L318.548 291.093ZM325.877 316.564C325.877 319.435 324.429 320.869 321.529 320.869H302.518V273.752H321.406C324.226 273.752 325.635 275.197 325.635 278.088V290.221C325.635 291.826 325.128 293.071 324.113 293.955C323.972 294.074 322.735 294.847 320.403 296.273C322.816 297.737 324.094 298.54 324.236 298.681C325.331 299.623 325.877 300.918 325.877 302.565V316.564Z" fill="#1B3E39"/>
        <path d="M120.572 151.659C120.572 151.659 115.517 156.887 115.517 163.336C115.517 169.784 120.572 175.012 120.572 175.012C120.572 175.012 125.628 169.784 125.628 163.336C125.628 156.887 120.572 151.659 120.572 151.659Z" fill="#FAB819"/>
        <path d="M119.209 180.343C119.209 180.343 119.068 173.107 115.001 168.548C110.933 163.988 104.479 163.83 104.479 163.83C104.479 163.83 104.62 171.065 108.688 175.625C112.755 180.185 119.209 180.343 119.209 180.343Z" fill="#FAB819"/>
        <path d="M104.479 179.398C104.479 179.398 104.62 186.634 108.688 191.194C112.755 195.754 119.209 195.912 119.209 195.912C119.209 195.912 119.068 188.676 115.001 184.116C110.933 179.556 104.479 179.398 104.479 179.398Z" fill="#FAB819"/>
        <path d="M104.479 194.967C104.479 194.967 104.62 202.203 108.688 206.763C112.755 211.322 119.209 211.48 119.209 211.48C119.209 211.48 119.068 204.245 115.001 199.685C110.933 195.125 104.479 194.967 104.479 194.967Z" fill="#FAB819"/>
        <path d="M104.479 210.536C104.479 210.536 104.62 217.771 108.688 222.33C112.755 226.891 119.209 227.049 119.209 227.049C119.209 227.049 119.068 219.814 115.001 215.254C110.933 210.694 104.479 210.536 104.479 210.536Z" fill="#FAB819"/>
        <path d="M136.666 163.83C136.666 163.83 130.212 163.988 126.144 168.548C122.076 173.107 121.935 180.343 121.935 180.343C121.935 180.343 128.389 180.185 132.457 175.625C136.525 171.065 136.666 163.83 136.666 163.83Z" fill="#FAB819"/>
        <path d="M121.935 195.912C121.935 195.912 128.389 195.754 132.457 191.194C136.525 186.634 136.666 179.398 136.666 179.398C136.666 179.398 130.212 179.556 126.144 184.116C122.076 188.676 121.935 195.912 121.935 195.912Z" fill="#FAB819"/>
        <path d="M121.935 211.48C121.935 211.48 128.389 211.322 132.457 206.763C136.525 202.203 136.666 194.967 136.666 194.967C136.666 194.967 130.212 195.125 126.144 199.685C122.076 204.245 121.935 211.48 121.935 211.48Z" fill="#FAB819"/>
        <path d="M121.935 227.049C121.935 227.049 128.389 226.891 132.457 222.33C136.525 217.771 136.666 210.536 136.666 210.536C136.666 210.536 130.212 210.694 126.144 215.254C122.076 219.814 121.935 227.049 121.935 227.049Z" fill="#FAB819"/>
        <path d="M121.446 237.869H119.699V176.851H121.446V237.869Z" fill="#FAB819"/>
        <path d="M279.424 151.659C279.424 151.659 274.369 156.887 274.369 163.336C274.369 169.784 279.424 175.012 279.424 175.012C279.424 175.012 284.48 169.784 284.48 163.336C284.48 156.887 279.424 151.659 279.424 151.659Z" fill="#FAB819"/>
        <path d="M278.061 180.343C278.061 180.343 277.92 173.107 273.853 168.548C269.784 163.988 263.331 163.83 263.331 163.83C263.331 163.83 263.471 171.065 267.54 175.625C271.607 180.185 278.061 180.343 278.061 180.343Z" fill="#FAB819"/>
        <path d="M263.331 179.398C263.331 179.398 263.471 186.634 267.54 191.194C271.607 195.754 278.061 195.912 278.061 195.912C278.061 195.912 277.92 188.676 273.853 184.116C269.784 179.556 263.331 179.398 263.331 179.398Z" fill="#FAB819"/>
        <path d="M263.331 194.967C263.331 194.967 263.471 202.203 267.54 206.763C271.607 211.322 278.061 211.48 278.061 211.48C278.061 211.48 277.92 204.245 273.853 199.685C269.784 195.125 263.331 194.967 263.331 194.967Z" fill="#FAB819"/>
        <path d="M263.331 210.536C263.331 210.536 263.471 217.771 267.54 222.33C271.607 226.891 278.061 227.049 278.061 227.049C278.061 227.049 277.92 219.814 273.853 215.254C269.784 210.694 263.331 210.536 263.331 210.536Z" fill="#FAB819"/>
        <path d="M295.517 163.83C295.517 163.83 289.064 163.988 284.995 168.548C280.928 173.107 280.787 180.343 280.787 180.343C280.787 180.343 287.241 180.185 291.309 175.625C295.376 171.065 295.517 163.83 295.517 163.83Z" fill="#FAB819"/>
        <path d="M280.787 195.912C280.787 195.912 287.241 195.754 291.309 191.194C295.376 186.634 295.517 179.398 295.517 179.398C295.517 179.398 289.064 179.556 284.995 184.116C280.928 188.676 280.787 195.912 280.787 195.912Z" fill="#FAB819"/>
        <path d="M280.787 211.48C280.787 211.48 287.241 211.322 291.309 206.763C295.376 202.203 295.517 194.967 295.517 194.967C295.517 194.967 289.064 195.125 284.995 199.685C280.928 204.245 280.787 211.48 280.787 211.48Z" fill="#FAB819"/>
        <path d="M280.787 227.049C280.787 227.049 287.241 226.891 291.309 222.33C295.376 217.771 295.517 210.536 295.517 210.536C295.517 210.536 289.064 210.694 284.995 215.254C280.928 219.814 280.787 227.049 280.787 227.049Z" fill="#FAB819"/>
        <path d="M280.298 237.869H278.55V176.851H280.298V237.869Z" fill="#FAB819"/>
        <path d="M208.061 192.763H191.935V176.8H208.061V192.763ZM203.174 158.42H191.766L180.393 172.538L169.945 237.869H190.835V220.335C190.835 215.326 194.938 211.265 199.998 211.265C205.059 211.265 209.161 215.326 209.161 220.335V237.869H230.051L219.603 172.537L208.23 158.42H203.174Z" fill="#1B3E39"/>
        <path d="M205.823 142.46C205.823 142.465 205.822 142.47 205.822 142.475L222.785 155.864H228.891L211.759 137.756L205.821 142.442C205.821 142.448 205.823 142.454 205.823 142.46Z" fill="#1B3E39"/>
        <path d="M204.955 130.565L200.059 125.39L195.098 130.634L199.998 136.717L204.955 130.565Z" fill="#1B3E39"/>
        <path d="M206.172 155.864L200.013 148.218C200.008 148.218 200.003 148.219 200 148.219C199.994 148.219 199.989 148.217 199.985 148.217L193.825 155.864H200.059H206.172Z" fill="#1B3E39"/>
        <path d="M194.172 142.46C194.172 142.454 194.174 142.447 194.174 142.441L188.307 137.811L171.228 155.864H177.212L194.174 142.476C194.174 142.471 194.172 142.465 194.172 142.46Z" fill="#1B3E39"/>
        <path d="M197.514 142.457C197.516 143.112 197.774 143.73 198.241 144.192C199.181 145.123 200.817 145.123 201.754 144.192H201.756C202.222 143.73 202.48 143.112 202.48 142.457C202.482 141.804 202.223 141.192 201.76 140.728L201.743 140.711C201.276 140.251 200.657 139.997 199.999 139.997C199.338 139.997 198.72 140.251 198.252 140.711L198.236 140.728C197.773 141.192 197.514 141.804 197.514 142.457Z" fill="#1B3E39"/>
        <path d="M144.982 185.533L156.479 196.914L196.539 147.185L195.22 145.879L144.982 185.533Z" fill="#1B3E39"/>
        <path d="M156.479 88.0001L144.982 99.3816L195.22 139.032L196.539 137.726L156.479 88.0001Z" fill="#1B3E39"/>
        <path d="M255.014 99.3816L243.517 88.0001L203.458 137.726L204.777 139.032L255.014 99.3816Z" fill="#1B3E39"/>
        <path d="M243.517 196.914L255.014 185.533L204.777 145.879L203.458 147.185L243.517 196.914Z" fill="#1B3E39"/>
        <path d="M328 258.758H72.0005V244.603C72.0005 239.851 75.8934 235.997 80.6958 235.997H319.305C324.107 235.997 328 239.851 328 244.603V258.758Z" fill="#1B3E39"/>
    </g>
    <defs>
        <linearGradient id="paint0_linear" x1="323.956" y1="47.8633" x2="51.4286" y2="324.359" gradientUnits="userSpaceOnUse">
            <stop stop-color="#FFE598"/>
            <stop offset="0.604167" stop-color="#FFE598"/>
            <stop offset="1" stop-color="#FFEF9A"/>
        </linearGradient>
        <clipPath id="clip0">
            <rect width="256" height="256" fill="white" transform="translate(72 72)"/>
        </clipPath>
    </defs>
</svg>
