<?xml version="1.0" encoding="UTF-8" standalone="no"?>
<svg
  xmlns:dc="http://purl.org/dc/elements/1.1/"
  xmlns:cc="http://creativecommons.org/ns#"
  xmlns:rdf="http://www.w3.org/1999/02/22-rdf-syntax-ns#"
  xmlns:svg="http://www.w3.org/2000/svg"
  xmlns="http://www.w3.org/2000/svg"
  viewBox="0 0 425.45334 429.81332"
  height="429.81332"
  width="425.45334"
  xml:space="preserve"
  id="svg2"
  version="1.1"><metadata
    id="metadata8"><rdf:RDF><cc:Work
        rdf:about=""><dc:format>image/svg+xml</dc:format><dc:type
          rdf:resource="http://purl.org/dc/dcmitype/StillImage" /></cc:Work></rdf:RDF></metadata><defs
     id="defs6" /><g
     transform="matrix(1.3333333,0,0,-1.3333333,0,429.81333)"
     id="g10"><g
       transform="scale(0.1)"
       id="g12"><path
         id="path14"
         style="fill:#1b3e39;fill-opacity:1;fill-rule:nonzero;stroke:none"
         d="M 334.758,291.262 H 236.945 L 124.352,555.891 V 291.262 H 35.6367 v 593.32 h 88.7153 v -250.98 l 98.57,250.98 h 97.055 V 880.41 L 199.422,598.73 334.758,291.262" /><path
         id="path16"
         style="fill:#1b3e39;fill-opacity:1;fill-rule:nonzero;stroke:none"
         d="m 674.066,291.262 h -92.5 l -97.812,275.609 v 53.461 h 87.191 V 808.379 H 459.109 V 291.262 h -88.714 v 593.32 H 605.82 c 35.649,0 53.465,-18.203 53.465,-54.602 V 614.27 c 0,-25.028 -8.472,-41.211 -25.402,-48.532 -9.098,-3.789 -28.309,-5.679 -57.621,-5.679 l 97.804,-268.797" /><path
         id="path18"
         style="fill:#1b3e39;fill-opacity:1;fill-rule:nonzero;stroke:none"
         d="m 1025.13,345.48 c 0,-36.16 -18.19,-54.218 -54.591,-54.218 H 782.117 c -35.89,0 -53.84,18.058 -53.84,54.218 v 539.102 h 88.715 V 367.469 h 119.426 v 517.113 h 88.712 V 345.48" /><path
         id="path20"
         style="fill:#1b3e39;fill-opacity:1;fill-rule:nonzero;stroke:none"
         d="M 1293.54,582.422 V 808.379 H 1185.11 V 582.422 Z m 89.47,-20.852 c 0,-36.898 -18.07,-55.351 -54.2,-55.351 h -143.7 V 291.262 h -88.71 v 593.32 h 232.41 c 36.13,0 54.2,-18.203 54.2,-54.602 V 561.57" /><path
         id="path22"
         style="fill:#1b3e39;fill-opacity:1;fill-rule:nonzero;stroke:none"
         d="m 1628.3,480.059 -43.21,267.66 -43.6,-267.66 z m 118.29,-188.797 h -87.96 l -17.81,112.59 h -111.09 l -17.81,-112.59 h -87.58 v 1.508 l 114.87,592.57 h 93.26 l 114.12,-594.078" /><path
         id="path24"
         style="fill:#1b3e39;fill-opacity:1;fill-rule:nonzero;stroke:none"
         d="m 2080.59,345.48 c 0,-36.16 -17.95,-54.218 -53.84,-54.218 h -178.56 c -35.64,0 -53.46,18.058 -53.46,54.218 v 141.411 h 88.72 v -120.95 h 108.43 V 482.34 l -177.81,168.32 c -12.9,12.379 -19.34,28.172 -19.34,47.379 V 829.98 c 0,36.399 17.82,54.602 53.46,54.602 h 178.56 c 35.89,0 53.84,-17.953 53.84,-53.84 V 698.039 h -88.71 V 809.891 H 1883.45 V 702.59 l 177.8,-167.559 c 12.89,-12.133 19.34,-28.191 19.34,-48.14 V 345.48" /><path
         id="path26"
         style="fill:#1b3e39;fill-opacity:1;fill-rule:nonzero;stroke:none"
         d="m 2451.75,291.262 h -77.73 L 2231.85,664.68 c 3.8,-18.188 5.69,-32.481 5.69,-42.84 V 291.262 h -86.44 v 593.32 h 77.73 L 2370.99,518.73 c -3.79,18.192 -5.69,32.481 -5.69,42.84 v 323.012 h 86.45 v -593.32" /><path
         id="path28"
         style="fill:#1b3e39;fill-opacity:1;fill-rule:nonzero;stroke:none"
         d="m 2705.37,480.059 -43.22,267.66 -43.59,-267.66 z m 118.28,-188.797 h -87.95 l -17.82,112.59 H 2606.8 l -17.81,-112.59 h -87.59 v 1.508 l 114.87,592.57 h 93.27 l 114.11,-594.078" /><path
         id="path30"
         style="fill:#1b3e39;fill-opacity:1;fill-rule:nonzero;stroke:none"
         d="m 3075.39,365.941 v 169.09 l -43.61,28.809 h -69.75 V 365.941 Z m -2.28,300.27 v 143.68 h -111.08 v -174 h 68.24 z m 91.36,-320.731 c 0,-36.16 -18.06,-54.218 -54.2,-54.218 h -236.96 v 593.32 h 235.43 c 35.14,0 52.71,-18.203 52.71,-54.602 V 677.191 c 0,-20.211 -6.32,-35.882 -18.97,-47.011 -1.76,-1.5 -17.18,-11.239 -46.25,-29.192 30.08,-18.437 46.01,-28.547 47.78,-30.328 13.65,-11.859 20.46,-28.168 20.46,-48.898 V 345.48" /><path
         id="path32"
         style="fill:#fab819;fill-opacity:1;fill-rule:nonzero;stroke:none"
         d="m 605.449,2422.02 c 0,0 -63.015,-65.83 -63.015,-147.04 0,-81.2 63.015,-147.03 63.015,-147.03 0,0 63.016,65.83 63.016,147.03 0,81.21 -63.016,147.04 -63.016,147.04" /><path
         id="path34"
         style="fill:#fab819;fill-opacity:1;fill-rule:nonzero;stroke:none"
         d="m 588.461,2060.82 c 0,0 -1.762,91.11 -52.457,148.53 -50.703,57.42 -131.149,59.41 -131.149,59.41 0,0 1.758,-91.11 52.458,-148.53 50.703,-57.42 131.148,-59.41 131.148,-59.41" /><path
         id="path36"
         style="fill:#fab819;fill-opacity:1;fill-rule:nonzero;stroke:none"
         d="m 404.855,2072.71 c 0,0 1.758,-91.11 52.458,-148.53 50.703,-57.42 131.148,-59.41 131.148,-59.41 0,0 -1.762,91.11 -52.457,148.53 -50.703,57.42 -131.149,59.41 -131.149,59.41" /><path
         id="path38"
         style="fill:#fab819;fill-opacity:1;fill-rule:nonzero;stroke:none"
         d="m 404.855,1876.66 c 0,0 1.758,-91.11 52.458,-148.53 50.703,-57.42 131.148,-59.41 131.148,-59.41 0,0 -1.762,91.11 -52.457,148.53 -50.703,57.42 -131.149,59.41 -131.149,59.41" /><path
         id="path40"
         style="fill:#fab819;fill-opacity:1;fill-rule:nonzero;stroke:none"
         d="m 404.855,1680.61 c 0,0 1.758,-91.11 52.458,-148.52 50.703,-57.43 131.148,-59.42 131.148,-59.42 0,0 -1.762,91.11 -52.457,148.53 -50.703,57.42 -131.149,59.41 -131.149,59.41" /><path
         id="path42"
         style="fill:#fab819;fill-opacity:1;fill-rule:nonzero;stroke:none"
         d="m 806.047,2268.76 c 0,0 -80.445,-1.99 -131.149,-59.41 -50.703,-57.42 -52.46,-148.53 -52.46,-148.53 0,0 80.449,1.99 131.148,59.41 50.703,57.42 52.461,148.53 52.461,148.53" /><path
         id="path44"
         style="fill:#fab819;fill-opacity:1;fill-rule:nonzero;stroke:none"
         d="m 622.438,1864.77 c 0,0 80.449,1.99 131.148,59.41 50.703,57.42 52.461,148.53 52.461,148.53 0,0 -80.445,-1.99 -131.149,-59.41 -50.703,-57.42 -52.46,-148.53 -52.46,-148.53" /><path
         id="path46"
         style="fill:#fab819;fill-opacity:1;fill-rule:nonzero;stroke:none"
         d="m 622.438,1668.72 c 0,0 80.449,1.99 131.148,59.41 50.703,57.42 52.461,148.53 52.461,148.53 0,0 -80.445,-1.99 -131.149,-59.41 -50.703,-57.42 -52.46,-148.53 -52.46,-148.53" /><path
         id="path48"
         style="fill:#fab819;fill-opacity:1;fill-rule:nonzero;stroke:none"
         d="m 622.438,1472.67 c 0,0 80.449,1.99 131.148,59.42 50.703,57.41 52.461,148.52 52.461,148.52 0,0 -80.445,-1.99 -131.149,-59.41 -50.703,-57.42 -52.46,-148.53 -52.46,-148.53" /><path
         id="path50"
         style="fill:#fab819;fill-opacity:1;fill-rule:nonzero;stroke:none"
         d="M 616.34,1336.44 H 594.559 V 2104.8 H 616.34 V 1336.44" /><path
         id="path52"
         style="fill:#fab819;fill-opacity:1;fill-rule:nonzero;stroke:none"
         d="m 2585.45,2422.02 c 0,0 -63.01,-65.83 -63.01,-147.04 0,-81.2 63.01,-147.03 63.01,-147.03 0,0 63.02,65.83 63.02,147.03 0,81.21 -63.02,147.04 -63.02,147.04" /><path
         id="path54"
         style="fill:#fab819;fill-opacity:1;fill-rule:nonzero;stroke:none"
         d="m 2568.47,2060.82 c 0,0 -1.76,91.11 -52.46,148.53 -50.71,57.42 -131.15,59.41 -131.15,59.41 0,0 1.75,-91.11 52.46,-148.53 50.7,-57.42 131.15,-59.41 131.15,-59.41" /><path
         id="path56"
         style="fill:#fab819;fill-opacity:1;fill-rule:nonzero;stroke:none"
         d="m 2384.86,2072.71 c 0,0 1.75,-91.11 52.46,-148.53 50.7,-57.42 131.15,-59.41 131.15,-59.41 0,0 -1.76,91.11 -52.46,148.53 -50.71,57.42 -131.15,59.41 -131.15,59.41" /><path
         id="path58"
         style="fill:#fab819;fill-opacity:1;fill-rule:nonzero;stroke:none"
         d="m 2384.86,1876.66 c 0,0 1.75,-91.11 52.46,-148.53 50.7,-57.42 131.15,-59.41 131.15,-59.41 0,0 -1.76,91.11 -52.46,148.53 -50.71,57.42 -131.15,59.41 -131.15,59.41" /><path
         id="path60"
         style="fill:#fab819;fill-opacity:1;fill-rule:nonzero;stroke:none"
         d="m 2384.86,1680.61 c 0,0 1.75,-91.11 52.46,-148.52 50.7,-57.43 131.15,-59.42 131.15,-59.42 0,0 -1.76,91.11 -52.46,148.53 -50.71,57.42 -131.15,59.41 -131.15,59.41" /><path
         id="path62"
         style="fill:#fab819;fill-opacity:1;fill-rule:nonzero;stroke:none"
         d="m 2786.05,2268.76 c 0,0 -80.44,-1.99 -131.15,-59.41 -50.7,-57.42 -52.46,-148.53 -52.46,-148.53 0,0 80.45,1.99 131.16,59.41 50.69,57.42 52.45,148.53 52.45,148.53" /><path
         id="path64"
         style="fill:#fab819;fill-opacity:1;fill-rule:nonzero;stroke:none"
         d="m 2602.44,1864.77 c 0,0 80.45,1.99 131.16,59.41 50.69,57.42 52.45,148.53 52.45,148.53 0,0 -80.44,-1.99 -131.15,-59.41 -50.7,-57.42 -52.46,-148.53 -52.46,-148.53" /><path
         id="path66"
         style="fill:#fab819;fill-opacity:1;fill-rule:nonzero;stroke:none"
         d="m 2602.44,1668.72 c 0,0 80.45,1.99 131.16,59.41 50.69,57.42 52.45,148.53 52.45,148.53 0,0 -80.44,-1.99 -131.15,-59.41 -50.7,-57.42 -52.46,-148.53 -52.46,-148.53" /><path
         id="path68"
         style="fill:#fab819;fill-opacity:1;fill-rule:nonzero;stroke:none"
         d="m 2602.44,1472.67 c 0,0 80.45,1.99 131.16,59.42 50.69,57.41 52.45,148.52 52.45,148.52 0,0 -80.44,-1.99 -131.15,-59.41 -50.7,-57.42 -52.46,-148.53 -52.46,-148.53" /><path
         id="path70"
         style="fill:#fab819;fill-opacity:1;fill-rule:nonzero;stroke:none"
         d="m 2596.35,1336.44 h -21.79 v 768.36 h 21.79 v -768.36" /><path
         id="path72"
         style="fill:#1b3e39;fill-opacity:1;fill-rule:nonzero;stroke:none"
         d="m 1695.95,1904.43 h -201 v 201.01 h 201 z m -60.91,432.46 h -142.2 l -141.76,-177.78 -130.23,-822.67 h 260.39 v 220.8 c 0,63.07 51.14,114.21 114.21,114.21 63.08,0 114.21,-51.14 114.21,-114.21 v -220.8 h 260.39 l -130.23,822.68 -141.76,177.77 h -63.02" /><path
         id="path74"
         style="fill:#1b3e39;fill-opacity:1;fill-rule:nonzero;stroke:none"
         d="m 1668.06,2537.85 c 0,-0.06 -0.02,-0.12 -0.02,-0.18 l 211.43,-168.6 h 76.12 l -213.55,228.02 -74.01,-59.01 c 0,-0.08 0.03,-0.15 0.03,-0.23" /><path
         id="path76"
         style="fill:#1b3e39;fill-opacity:1;fill-rule:nonzero;stroke:none"
         d="m 1657.23,2687.65 -61.02,65.16 -61.84,-66.03 61.08,-76.6 61.78,77.47" /><path
         id="path78"
         style="fill:#1b3e39;fill-opacity:1;fill-rule:nonzero;stroke:none"
         d="m 1672.4,2369.07 -76.77,96.28 c -0.06,0 -0.12,-0.01 -0.16,-0.01 -0.07,0 -0.13,0.02 -0.19,0.02 l -76.78,-96.29 h 77.71 76.19" /><path
         id="path80"
         style="fill:#1b3e39;fill-opacity:1;fill-rule:nonzero;stroke:none"
         d="m 1522.83,2537.85 c 0,0.08 0.02,0.17 0.02,0.24 l -73.12,58.31 -212.89,-227.33 h 74.59 l 211.42,168.58 c 0,0.07 -0.02,0.14 -0.02,0.2" /><path
         id="path82"
         style="fill:#1b3e39;fill-opacity:1;fill-rule:nonzero;stroke:none"
         d="m 1564.49,2537.89 c 0.02,-8.25 3.24,-16.03 9.06,-21.85 11.72,-11.72 32.11,-11.72 43.79,0 h 0.02 c 5.82,5.82 9.03,13.6 9.03,21.85 0.02,8.22 -3.2,15.93 -8.97,21.77 l -0.21,0.21 c -5.83,5.8 -13.54,8.99 -21.74,8.99 -8.24,0 -15.95,-3.19 -21.78,-8.99 l -0.2,-0.21 c -5.77,-5.84 -9,-13.55 -9,-21.77" /><path
         id="path84"
         style="fill:#1b3e39;fill-opacity:1;fill-rule:nonzero;stroke:none"
         d="m 909.699,1995.47 143.311,-143.32 499.32,626.21 -16.44,16.44 -626.191,-499.33" /><path
         id="path86"
         style="fill:#1b3e39;fill-opacity:1;fill-rule:nonzero;stroke:none"
         d="m 1053.01,3223.64 -143.311,-143.32 626.191,-499.29 16.44,16.44 -499.32,626.17" /><path
         id="path88"
         style="fill:#1b3e39;fill-opacity:1;fill-rule:nonzero;stroke:none"
         d="m 2281.2,3080.32 -143.31,143.32 -499.31,-626.17 16.44,-16.44 626.18,499.29" /><path
         id="path90"
         style="fill:#1b3e39;fill-opacity:1;fill-rule:nonzero;stroke:none"
         d="m 2137.89,1852.15 143.31,143.32 -626.18,499.33 -16.44,-16.44 499.31,-626.21" /><path
         id="path92"
         style="fill:#1b3e39;fill-opacity:1;fill-rule:nonzero;stroke:none"
         d="M 3190.91,1073.39 H 0.00390625 v 178.24 c 0,59.85 48.52339375,108.38 108.38309375,108.38 H 3082.52 c 59.86,0 108.39,-48.53 108.39,-108.38 v -178.24" /><path
         id="path94"
         style="fill:#1b3e39;fill-opacity:1;fill-rule:nonzero;stroke:none"
         d="M 0.00390625,75.6484 V 0 H 3190.91 V 75.6484 H 0.00390625" /></g></g></svg>